<svg width="18.000000" height="18.000000" viewBox="0 0 18 18" fill="none" xmlns="http://www.w3.org/2000/svg" xmlns:xlink="http://www.w3.org/1999/xlink">
	<path id="Vector" d="M0 9C0 7.36 0.4 5.86 1.2 4.48C2.01 3.1 3.1 2.01 4.48 1.2C5.86 0.4 7.36 0 9 0C10.63 0 12.13 0.4 13.51 1.2C14.89 2.01 15.99 3.1 16.79 4.48C17.59 5.86 18 7.36 18 9C18 10.63 17.59 12.13 16.79 13.51C15.99 14.89 14.89 15.99 13.51 16.79C12.13 17.59 10.63 18 9 18C7.36 18 5.86 17.59 4.48 16.79C3.1 15.99 2.01 14.89 1.2 13.51C0.4 12.13 0 10.63 0 9ZM1.49 9C1.49 10.87 2.12 12.52 3.38 13.95C3.96 12.82 4.87 11.74 6.12 10.72C7.36 9.7 8.58 9.06 9.77 8.8C9.59 8.38 9.41 8 9.25 7.66C7.18 8.32 4.95 8.65 2.55 8.65C2.08 8.65 1.73 8.65 1.51 8.63C1.51 8.68 1.5 8.74 1.5 8.82C1.49 8.89 1.49 8.95 1.49 9ZM1.72 7.14C1.99 7.16 2.38 7.18 2.89 7.18C4.9 7.18 6.8 6.91 8.6 6.37C7.69 4.75 6.69 3.4 5.59 2.32C4.65 2.8 3.83 3.46 3.15 4.32C2.48 5.17 2 6.11 1.72 7.14ZM4.4 14.92C5.76 15.97 7.29 16.5 9 16.5C9.88 16.5 10.77 16.33 11.64 16C11.4 13.95 10.93 11.96 10.24 10.04C9.13 10.28 8.02 10.88 6.9 11.86C5.78 12.83 4.95 13.85 4.4 14.92ZM7.16 1.74C8.22 2.83 9.19 4.19 10.09 5.83C11.73 5.14 12.96 4.27 13.78 3.22C12.39 2.07 10.8 1.49 9 1.49C8.38 1.49 7.77 1.57 7.16 1.74ZM10.74 7.11C10.92 7.49 11.13 7.97 11.35 8.56C12.24 8.48 13.21 8.44 14.25 8.44C15 8.44 15.73 8.45 16.46 8.49C16.37 6.86 15.78 5.41 14.7 4.13C13.92 5.3 12.6 6.29 10.74 7.11ZM11.8 9.82C12.42 11.6 12.83 13.42 13.05 15.3C13.99 14.68 14.77 13.9 15.37 12.94C15.97 11.98 16.33 10.94 16.45 9.82C15.57 9.76 14.77 9.73 14.05 9.73C13.39 9.73 12.64 9.76 11.8 9.82Z" fill="#A53DFF" fill-opacity="1.000000" fill-rule="nonzero"/>
</svg>
