<svg width="12.000000" height="13.000000" viewBox="0 0 12 13" fill="none" xmlns="http://www.w3.org/2000/svg" xmlns:xlink="http://www.w3.org/1999/xlink">
	<path id="Vector" d="M11.92 5.62C11.87 5.49 11.8 5.38 11.71 5.29L6.71 0.29C6.61 0.19 6.5 0.12 6.38 0.07C6.26 0.02 6.13 -0.01 6 -0.01C5.73 -0.01 5.47 0.1 5.28 0.29C5.19 0.38 5.12 0.49 5.07 0.61C5.02 0.73 4.99 0.86 4.99 1C4.99 1.26 5.1 1.52 5.28 1.71L8.59 5L1 5C0.73 5 0.48 5.1 0.29 5.29C0.1 5.48 0 5.73 0 6C0 6.26 0.1 6.51 0.29 6.7C0.48 6.89 0.73 7 1 7L8.59 7L5.28 10.29C5.19 10.38 5.12 10.49 5.07 10.61C5.02 10.73 4.99 10.86 4.99 11C4.99 11.13 5.02 11.26 5.07 11.38C5.12 11.5 5.19 11.61 5.28 11.71C5.38 11.8 5.49 11.87 5.61 11.92C5.73 11.97 5.86 12 6 12C6.13 12 6.26 11.97 6.38 11.92C6.5 11.87 6.61 11.8 6.71 11.71L11.71 6.71C11.8 6.61 11.87 6.5 11.92 6.38C12.02 6.13 12.02 5.86 11.92 5.62Z" fill="#FFFFFF" fill-opacity="1.000000" fill-rule="nonzero"/>
</svg>
