<svg fill="currentColor" width="17.000000" height="12.000000" viewBox="0 0 17 12" xmlns="http://www.w3.org/2000/svg" xmlns:xlink="http://www.w3.org/1999/xlink">
	<path id="Vector" d="M6.26 5.02C6.26 5.02 7.96 4.9 7.96 2.93C7.96 0.96 6.57 0 4.8 0L-1 0L-1 11.01L4.8 11.01C4.8 11.01 8.35 11.12 8.35 7.76C8.35 7.76 8.5 5.02 6.26 5.02ZM4.39 1.95L4.8 1.95C4.8 1.95 5.59 1.95 5.59 3.1C5.59 4.25 5.13 4.41 4.6 4.41L1.55 4.41L1.55 1.95L4.39 1.95ZM4.64 9.05L1.55 9.05L1.55 6.11L4.8 6.11C4.8 6.11 5.98 6.09 5.98 7.62C5.98 8.91 5.1 9.04 4.64 9.05ZM13.08 2.8C8.78 2.8 8.79 7.03 8.79 7.03C8.79 7.03 8.49 11.24 13.08 11.24C13.08 11.24 16.9 11.46 16.9 8.31L14.93 8.31C14.93 8.31 15 9.5 13.14 9.5C13.14 9.5 11.18 9.63 11.18 7.58L16.96 7.58C16.96 7.58 17.59 2.8 13.08 2.8ZM11.16 6.11C11.16 6.11 11.4 4.41 13.12 4.41C14.84 4.41 14.82 6.11 14.82 6.11L11.16 6.11ZM15.28 2L10.68 2L10.68 0.64L15.28 0.64L15.28 2Z" fill-opacity="1.000000" fill-rule="nonzero"/>
</svg>
