<svg width="18.000000" height="18.000000" viewBox="0 0 18 18" fill="none" xmlns="http://www.w3.org/2000/svg" xmlns:xlink="http://www.w3.org/1999/xlink">
	<path id="Vector" d="M0 2.09C0 1.48 0.2 0.98 0.6 0.59C1.01 0.19 1.54 -0.01 2.18 -0.01C2.82 -0.01 3.34 0.19 3.73 0.58C4.14 0.98 4.34 1.5 4.34 2.14C4.34 2.72 4.14 3.21 3.75 3.59C3.34 3.99 2.81 4.19 2.15 4.19L2.13 4.19C1.5 4.19 0.98 3.99 0.59 3.59C0.19 3.19 0 2.69 0 2.09ZM0.22 17.99L0.22 5.85L4.08 5.85L4.08 17.99L0.22 17.99ZM6.22 17.99L10.07 17.99L10.07 11.21C10.07 10.79 10.12 10.46 10.21 10.23C10.37 9.82 10.62 9.47 10.95 9.19C11.28 8.9 11.69 8.76 12.19 8.76C13.49 8.76 14.14 9.67 14.14 11.5L14.14 17.99L18 17.99L18 11.03C18 9.24 17.59 7.88 16.78 6.95C15.97 6.02 14.9 5.56 13.56 5.56C12.07 5.56 10.91 6.23 10.07 7.58L10.07 7.61L10.05 7.61L10.07 7.58L10.07 5.85L6.22 5.85C6.24 6.24 6.25 7.44 6.25 9.47C6.25 11.49 6.24 14.33 6.22 17.99Z" fill="#FFFFFF" fill-opacity="1.000000" fill-rule="nonzero"/>
</svg>
