<svg width="200.000000" height="200.000000" viewBox="0 0 200 200" fill="none" xmlns="http://www.w3.org/2000/svg" xmlns:xlink="http://www.w3.org/1999/xlink">
	<desc>
			Created with Pixso.
	</desc>
	<defs>
		<clipPath id="clip135_854">
			<rect id="amazon" width="200.000000" height="200.000000" fill="white" fill-opacity="0"/>
		</clipPath>
	</defs>
	<rect id="amazon" width="200.000000" height="200.000000" fill="#FFFFFF" fill-opacity="0"/>
	<g clip-path="url(#clip135_854)">
		<path id="Vector" d="M59.79 104.1L59.79 117.71C59.79 117.93 59.7 118.14 59.55 118.29C59.39 118.45 59.18 118.54 58.96 118.54L54.69 118.54C54.47 118.54 54.26 118.45 54.1 118.29C53.95 118.14 53.86 117.93 53.86 117.71L53.86 95.57C53.86 95.35 53.95 95.14 54.1 94.98C54.26 94.83 54.47 94.74 54.69 94.74L58.64 94.74C58.86 94.74 59.07 94.83 59.23 94.98C59.38 95.14 59.47 95.35 59.47 95.57L59.47 98.69C59.47 98.69 60.88 94.24 65.08 94.24C65.08 94.24 69.23 93.74 70.92 98.37C70.92 98.37 72.34 94.24 76.62 94.24C76.62 94.24 83 93.86 83 100.49L83.05 104.14L83.05 117.75C83.05 117.97 82.96 118.18 82.81 118.34C82.65 118.5 82.44 118.58 82.22 118.58L77.95 118.58C77.73 118.58 77.52 118.5 77.36 118.34C77.21 118.18 77.12 117.97 77.12 117.75L77.08 102.9C77.2 99.54 74.49 99.79 74.49 99.79C71.09 99.85 71.42 104.14 71.42 104.14L71.42 117.75C71.42 117.97 71.33 118.18 71.17 118.34C71.02 118.5 70.81 118.58 70.59 118.58L66.31 118.58C66.09 118.58 65.88 118.5 65.73 118.34C65.57 118.18 65.49 117.97 65.49 117.75L65.49 103.24C65.49 103.24 65.74 99.76 62.69 99.76C62.69 99.76 59.68 99.36 59.79 104.1ZM170 104.06L170 117.66C170 117.89 169.91 118.1 169.75 118.25C169.6 118.41 169.39 118.5 169.17 118.5L164.72 118.58C164.5 118.58 164.29 118.5 164.14 118.34C163.98 118.18 163.89 117.97 163.89 117.75L163.89 103.24C163.89 103.24 164.14 99.76 161.1 99.76C161.1 99.76 158.2 99.61 158.2 105.08L158.2 117.71C158.2 117.93 158.11 118.14 157.95 118.29C157.8 118.45 157.59 118.54 157.37 118.54L153.09 118.54C152.87 118.54 152.66 118.45 152.51 118.29C152.35 118.14 152.27 117.93 152.27 117.71L152.27 95.57C152.27 95.35 152.35 95.14 152.51 94.98C152.66 94.83 152.87 94.74 153.09 94.74L157.05 94.74C157.27 94.74 157.48 94.83 157.64 94.98C157.79 95.14 157.88 95.35 157.88 95.57L157.88 98.69C157.88 98.69 159.29 94.24 163.49 94.24C163.49 94.24 167.99 93.55 169.5 98.28C169.5 98.28 170 99.25 170 104.06ZM139.13 94.15C133.66 94.15 129.23 98.78 129.23 106.57C129.23 113.43 132.65 119 139.13 119C145.24 119 149.03 113.43 149.03 106.57C149.03 98.92 144.59 94.15 139.13 94.15ZM142.58 106.85C142.58 109.78 142.21 111.34 142.21 111.34C141.69 114.44 139.45 114.45 139.12 114.43C138.77 114.44 136.5 114.41 136.04 111.34C136.04 111.34 135.67 109.78 135.67 106.85L135.67 106.36C135.67 103.42 136.04 101.87 136.04 101.87C136.5 98.79 138.77 98.76 139.12 98.78C139.45 98.76 141.69 98.76 142.21 101.87C142.21 101.87 142.58 103.42 142.58 106.36L142.58 106.85ZM126.74 98.66L126.74 95.48C126.74 95.26 126.66 95.05 126.5 94.89C126.35 94.74 126.14 94.65 125.92 94.65L111.78 94.65C111.57 94.65 111.35 94.74 111.2 94.89C111.04 95.05 110.96 95.26 110.96 95.48L110.96 98.63C110.96 98.85 111.04 99.06 111.2 99.22C111.35 99.37 111.57 99.46 111.78 99.46L119.16 99.46L110.43 112.18C110.43 112.18 110.09 112.7 110.1 113.27L110.1 117.14C110.1 117.14 110.04 118.46 111.54 117.69C111.54 117.69 114.2 116.08 118.66 116.08C118.66 116.08 123.06 116.02 126 117.83C126 117.83 127.21 118.39 127.21 117.16L127.21 113.8C127.21 113.8 127.33 112.91 126.16 112.35C126.16 112.35 122.78 110.48 118.35 110.79L126.74 98.66ZM50.56 114.58L49.22 112.53C48.79 111.77 48.82 110.91 48.82 110.91L48.82 101.47C49.01 93.31 40 94.01 40 94.01C32 94.01 30.82 100.27 30.82 100.27C30.49 101.53 31.46 101.56 31.46 101.56L35.37 101.96C35.37 101.96 36.03 102.11 36.28 101.31C36.28 101.31 36.79 98.58 39.67 98.58C42.8 98.58 42.77 101.28 42.77 101.28L42.77 103.55C36.52 103.76 33.62 105.5 33.62 105.5C29.76 107.7 30 112.07 30 112.07C30 119.19 36.75 118.89 36.75 118.89C41.07 118.89 43.62 115.71 43.62 115.71C44.38 117.06 45.78 118.34 45.78 118.34C46.48 119.1 47.21 118.46 47.21 118.46L50.38 115.74C51.08 115.22 50.56 114.58 50.56 114.58ZM38.86 114.49C36.83 114.49 36.07 112.46 36.41 110.47C36.75 108.47 38.5 106.91 42.77 106.95L42.77 108.17C42.92 113.46 40.55 114.49 38.86 114.49ZM107.37 114.58L106.04 112.53C105.61 111.77 105.64 110.91 105.64 110.91L105.64 101.47C105.82 93.31 96.82 94.01 96.82 94.01C88.82 94.01 87.63 100.27 87.63 100.27C87.3 101.53 88.27 101.56 88.27 101.56L92.18 101.96C92.18 101.96 92.85 102.11 93.09 101.31C93.09 101.31 93.61 98.58 96.49 98.58C99.62 98.58 99.59 101.28 99.59 101.28L99.59 103.55C93.33 103.76 90.43 105.5 90.43 105.5C86.57 107.7 86.81 112.07 86.81 112.07C86.81 119.19 93.56 118.89 93.56 118.89C97.88 118.89 100.44 115.71 100.44 115.71C101.2 117.06 102.6 118.34 102.6 118.34C103.3 119.1 104.03 118.46 104.03 118.46L107.19 115.74C107.89 115.22 107.37 114.58 107.37 114.58ZM95.67 114.49C93.64 114.49 92.89 112.46 93.22 110.47C93.56 108.47 95.31 106.91 99.59 106.95L99.59 108.17C99.74 113.46 97.36 114.49 95.67 114.49Z" fill="#B8BCC2" fill-opacity="1.000000" fill-rule="nonzero"/>
		<path id="Vector" d="M118.26 132.06C118.26 132.06 117.9 132.68 118.34 132.82C118.34 132.82 118.84 133.01 119.45 132.44C119.45 132.44 123.96 128.5 124.07 121.34C124.07 121.34 124.1 120.44 123.74 120.2C123.74 120.2 122.33 118.95 117.26 119.33C117.26 119.33 112.83 119.63 110.42 121.77C110.42 121.77 110.2 121.96 110.2 122.21C110.2 122.21 110.15 122.73 111.48 122.51C111.48 122.51 115.9 121.88 118.53 122.21C118.53 122.21 119.89 122.37 120.27 122.83C120.27 122.83 120.89 123.35 120.57 125.06C120.57 125.06 119.67 129.4 118.26 132.06Z" fill="#B8BCC2" fill-opacity="1.000000" fill-rule="nonzero"/>
		<path id="Vector" d="M117.37 125.18C117.37 125.18 118.03 126.04 116.96 126.78C116.96 126.78 105.58 135.88 86.46 135.88C86.46 135.88 66.78 136.85 50.35 121.93C50.35 121.93 49.78 121.42 50.14 120.95C50.14 120.95 50.46 120.52 51.28 120.99C51.28 120.99 66.74 130.62 87.04 130.62C87.04 130.62 101.15 131.17 115.62 124.98C115.62 124.98 116.78 124.38 117.37 125.18Z" fill="#B8BCC2" fill-opacity="1.000000" fill-rule="nonzero"/>
	</g>
</svg>
