<!-- <svg width="200.000000" height="200.000000" viewBox="0 0 200 200" fill="none" xmlns="http://www.w3.org/2000/svg" xmlns:xlink="http://www.w3.org/1999/xlink">
	<desc>
			Created with Pixso.
	</desc>
	<defs>
		<clipPath id="clip135_840">
			<rect id="google" width="200.000000" height="200.000000" fill="white" fill-opacity="0"/>
		</clipPath>
	</defs>
	<rect id="google" width="200.000000" height="200.000000" fill="#FFFFFF" fill-opacity="0"/>
	<g clip-path="url(#clip135_840)">
		<path id="Vector" d="M47.47 77L48.74 77C53.12 77.09 57.43 78.8 60.52 81.84C59.38 82.98 58.21 84.07 57.09 85.2C55.36 83.67 53.26 82.49 50.97 82.07C47.59 81.38 43.95 82 41.12 83.88C38.02 85.85 35.92 89.19 35.47 92.76C34.97 96.28 36 99.99 38.35 102.73C40.62 105.39 44.07 107.06 47.64 107.18C50.97 107.36 54.45 106.37 56.88 104.09C58.78 102.5 59.67 100.06 59.95 97.7C56 97.7 52.05 97.72 48.09 97.7L48.09 92.92L64.74 92.92C65.59 98.04 64.36 103.82 60.36 107.48C57.69 110.08 54 111.6 50.24 111.91C46.59 112.25 42.83 111.58 39.59 109.87C35.71 107.85 32.62 104.44 31.09 100.43C29.66 96.75 29.64 92.57 30.97 88.86C32.19 85.48 34.52 82.49 37.52 80.4C40.4 78.34 43.9 77.2 47.47 77Z" fill="#B8BCC2" fill-opacity="1.000000" fill-rule="nonzero"/>
		<path id="Vector" d="M141 78L146 78L146 111.99C144.34 111.99 142.65 112.01 141 111.97C141.02 100.66 141 89.33 141 78Z" fill="#B8BCC2" fill-opacity="1.000000" fill-rule="nonzero"/>
		<path id="Vector" d="M75.25 89.21C78.37 88.61 81.75 89.28 84.32 91.15C86.66 92.8 88.29 95.41 88.78 98.25C89.42 101.54 88.62 105.13 86.49 107.74C84.2 110.65 80.45 112.21 76.79 111.97C73.44 111.78 70.18 110.1 68.19 107.36C65.95 104.33 65.41 100.16 66.64 96.61C67.86 92.8 71.33 89.89 75.25 89.21ZM75.96 93.7C74.69 94.03 73.51 94.77 72.66 95.81C70.37 98.55 70.51 103.03 73.03 105.58C74.47 107.05 76.65 107.74 78.65 107.33C80.52 107 82.15 105.75 83.05 104.09C84.6 101.27 84.15 97.39 81.77 95.19C80.24 93.77 77.99 93.18 75.96 93.7Z" fill="#B8BCC2" fill-opacity="1.000000" fill-rule="nonzero"/>
		<path id="Vector" d="M100.25 89.21C103.82 88.52 107.72 89.51 110.39 92.02C114.74 95.93 115.21 103.25 111.5 107.75C109.26 110.59 105.62 112.15 102.03 111.98C98.6 111.89 95.22 110.18 93.19 107.37C90.9 104.27 90.4 100 91.7 96.38C93 92.69 96.4 89.87 100.25 89.21ZM100.96 93.71C99.69 94.04 98.5 94.77 97.65 95.79C95.39 98.49 95.48 102.89 97.91 105.47C99.36 107.01 101.6 107.77 103.68 107.34C105.52 106.99 107.18 105.76 108.07 104.1C109.61 101.26 109.16 97.37 106.75 95.17C105.22 93.75 102.97 93.18 100.96 93.71Z" fill="#B8BCC2" fill-opacity="1.000000" fill-rule="nonzero"/>
		<path id="Vector" d="M121.53 90.57C124.25 88.88 127.86 88.41 130.79 89.86C131.71 90.26 132.47 90.94 133.2 91.62C133.22 90.99 133.2 90.33 133.22 89.67C134.81 89.7 136.39 89.67 138 89.7L138 110.38C137.97 113.5 137.17 116.8 134.9 119.08C132.42 121.59 128.62 122.36 125.19 121.84C121.53 121.31 118.34 118.66 116.93 115.3C118.34 114.62 119.83 114.08 121.3 113.45C122.12 115.37 123.8 117.01 125.9 117.39C128 117.76 130.44 117.25 131.81 115.51C133.27 113.73 133.27 111.29 133.2 109.11C132.11 110.17 130.86 111.11 129.35 111.46C126.07 112.37 122.45 111.25 119.93 109.04C117.37 106.84 115.86 103.44 116 100.06C116.08 96.24 118.25 92.56 121.53 90.57ZM126.42 93.57C124.98 93.8 123.63 94.6 122.71 95.7C120.49 98.33 120.49 102.52 122.74 105.1C124.01 106.63 126.07 107.47 128.05 107.26C129.92 107.07 131.64 105.9 132.56 104.28C134.12 101.54 133.86 97.81 131.76 95.42C130.46 93.94 128.38 93.21 126.42 93.57Z" fill="#B8BCC2" fill-opacity="1.000000" fill-rule="nonzero"/>
		<path id="Vector" d="M152.55 91.8C155.36 89.15 159.69 88.25 163.3 89.65C166.72 90.95 168.89 94.24 170 97.62C164.91 99.75 159.85 101.86 154.77 103.99C155.47 105.34 156.55 106.57 158 107.06C160.04 107.8 162.48 107.54 164.19 106.16C164.87 105.64 165.4 104.96 165.92 104.29C167.21 105.17 168.5 106.02 169.78 106.9C167.96 109.67 164.89 111.61 161.59 111.91C157.93 112.36 154.05 110.94 151.68 108.06C147.79 103.51 148.17 95.89 152.55 91.8ZM155.05 96.18C154.26 97.34 153.93 98.76 153.95 100.15C157.35 98.73 160.74 97.31 164.14 95.87C163.58 94.55 162.22 93.74 160.84 93.53C158.61 93.13 156.29 94.33 155.05 96.18Z" fill="#B8BCC2" fill-opacity="1.000000" fill-rule="nonzero"/>
	</g>
</svg> -->

<svg width="140" height="45" viewBox="0 0 140 45"
	xmlns="http://www.w3.org/2000/svg">
	<symbol id="my-first-icon">
		<path fill="var(--color-1, #B8BCC2)" d="M17.4787 0H18.7408C23.1222 0.0927257 27.4321 1.80815 30.5277 4.84492C29.3847 5.9808 28.2179 7.07033 27.0988 8.20622C25.3605 6.67625 23.265 5.49399 20.9791 5.07673C17.5978 4.38129 13.9545 5.00719 11.1209 6.88488C8.02534 8.8553 5.92989 12.1934 5.47746 15.7634C4.97741 19.2869 6.00132 22.996 8.35871 25.7314C10.6209 28.3972 14.0736 30.0663 17.6454 30.1822C20.9791 30.3677 24.4556 29.3709 26.8845 27.0991C28.7894 25.4996 29.6705 23.0655 29.9562 20.701C26.0034 20.701 22.0506 20.7242 18.0978 20.701V15.9256H34.7424C35.5997 21.0487 34.3614 26.8209 30.361 30.4836C27.6941 33.0799 24.0032 34.6099 20.2409 34.9112C16.5977 35.2589 12.8354 34.5867 9.59694 32.8712C5.71558 30.8545 2.62002 27.4468 1.09605 23.4364C-0.332675 19.7506 -0.356487 15.5779 0.976986 11.8689C2.1914 8.4844 4.52498 5.49399 7.52529 3.40767C10.4065 1.34452 13.9069 0.208633 17.4787 0Z"/>
		<path fill="var(--color-2, #B8BCC2)" d="M111 1H116V34.994C114.341 34.994 112.659 35.0179 111 34.9702C111.023 23.6627 111 12.3313 111 1Z"/>
		<path fill="var(--color-3, #B8BCC2)" d="M45.2588 12.2099C48.3753 11.6183 51.7515 12.2809 54.3249 14.1505C56.6622 15.8071 58.2913 18.4104 58.7871 21.2503C59.4245 24.5399 58.6218 28.1371 56.497 30.7403C54.2068 33.6512 50.4529 35.2132 46.7935 34.9765C43.4409 34.7872 40.1828 33.1069 38.1996 30.3617C35.9567 27.3324 35.4137 23.1672 36.6414 19.6174C37.8691 15.8071 41.3397 12.8962 45.2588 12.2099ZM45.9671 16.7065C44.6922 17.0378 43.5117 17.7714 42.6618 18.8127C40.3717 21.558 40.5133 26.0308 43.0396 28.5867C44.4797 30.054 46.6518 30.7403 48.6586 30.338C50.5238 30.0067 52.1528 28.7524 53.05 27.0958C54.6082 24.2795 54.1596 20.3983 51.7751 18.1974C50.2405 16.7775 47.9975 16.1858 45.9671 16.7065Z"/>
		<path d="M70.2583 12.2118C73.826 11.5252 77.7245 12.5196 80.3943 15.0292C84.7417 18.9357 85.2143 26.2516 81.5048 30.75C79.2602 33.5912 75.6217 35.1538 72.0303 34.988C68.6044 34.8933 65.2258 33.1887 63.1938 30.3712C60.902 27.2697 60.4058 23.008 61.7053 19.3856C63.0048 15.6921 66.4071 12.8747 70.2583 12.2118ZM70.9671 16.7102C69.6913 17.0417 68.5099 17.7756 67.6593 18.7937C65.3911 21.4927 65.4856 25.8965 67.9192 28.4771C69.3605 30.0161 71.6051 30.7737 73.6842 30.3475C75.5272 29.9924 77.181 28.7613 78.0789 27.1039C79.6146 24.2628 79.1657 20.38 76.7558 18.1781C75.22 16.7575 72.9754 16.1893 70.9671 16.7102Z"/>
		<path d="M91.5364 13.5704C94.2528 11.8822 97.8667 11.4132 100.796 12.867C101.717 13.2656 102.473 13.9455 103.205 14.6255C103.229 13.9924 103.205 13.3359 103.229 12.6794C104.811 12.7028 106.394 12.6794 108 12.7028V33.3831C107.976 36.5015 107.173 39.8075 104.906 42.0819C102.426 44.5907 98.6226 45.3645 95.1976 44.8486C91.5364 44.3094 88.3476 41.6599 86.9304 38.3069C88.3476 37.627 89.8357 37.0877 91.3002 36.4546C92.1269 38.3773 93.804 40.0186 95.9062 40.3937C98.0085 40.7689 100.441 40.253 101.811 38.518C103.276 36.736 103.276 34.2975 103.205 32.1169C102.118 33.1721 100.867 34.1099 99.3548 34.4616C96.0716 35.3761 92.4576 34.2506 89.9302 32.0466C87.3792 29.8426 85.8674 26.4428 86.0092 23.0664C86.08 19.2445 88.2531 15.5634 91.5364 13.5704ZM96.4259 16.5716C94.985 16.8061 93.6386 17.6033 92.7174 18.7053C90.4971 21.3313 90.4971 25.5283 92.741 28.1075C94.0166 29.6316 96.0716 30.4756 98.0557 30.2646C99.9217 30.077 101.646 28.9047 102.567 27.2869C104.126 24.5436 103.866 20.8155 101.764 18.4239C100.465 16.9467 98.3864 16.2199 96.4259 16.5716Z"/>
		<path d="M122.551 14.8062C125.362 12.1562 129.695 11.257 133.302 12.653C136.721 13.9544 138.899 17.2433 140 20.6269C134.918 22.7564 129.859 24.8622 124.776 26.9917C125.479 28.3404 126.556 29.5708 128.008 30.0677C130.046 30.8012 132.482 30.5409 134.192 29.1685C134.871 28.648 135.409 27.9618 135.925 27.2993C137.213 28.1748 138.501 29.0266 139.789 29.902C137.962 32.6704 134.894 34.6106 131.592 34.9182C127.938 35.3678 124.05 33.9481 121.685 31.0614C117.797 26.5185 118.171 18.8996 122.551 14.8062ZM125.057 19.1835C124.261 20.3429 123.933 21.7626 123.956 23.1586C127.353 21.7389 130.749 20.3193 134.145 18.8759C133.583 17.5509 132.224 16.7464 130.842 16.5335C128.617 16.1312 126.299 17.3379 125.057 19.1835Z"/>
	</symbol>
</svg>
<svg class="icon-colors">
	<use xlink:href="#my-first-icon" />
</svg>