<svg width="200.000000" height="200.000000" viewBox="0 0 200 200" fill="none" xmlns="http://www.w3.org/2000/svg" xmlns:xlink="http://www.w3.org/1999/xlink">
	<desc>
			Created with Pixso.
	</desc>
	<defs>
		<clipPath id="clip135_859">
			<rect id="medium" width="200.000000" height="200.000000" fill="white" fill-opacity="0"/>
		</clipPath>
	</defs>
	<rect id="medium" width="200.000000" height="200.000000" fill="#FFFFFF" fill-opacity="0"/>
	<g clip-path="url(#clip135_859)">
		<path id="Vector" d="M100.71 110.87C100.71 111.36 100.71 111.47 101.03 111.78L102.87 113.61L102.87 113.69L94.73 113.69L94.73 110.16C93.91 112.49 91.74 114.03 89.33 113.99C85.14 113.99 82.1 110.64 82.1 104.45C82.1 98.66 85.38 94.8 89.98 94.8C92.02 94.67 93.92 95.87 94.72 97.8L94.72 90.02C94.75 89.84 94.73 89.66 94.66 89.49C94.6 89.33 94.49 89.18 94.34 89.08L92.59 87.35L92.59 87.27L100.71 86.3L100.71 110.87ZM94.73 109.75L94.73 98.14C94.44 97.77 94.07 97.47 93.65 97.27C93.23 97.06 92.77 96.96 92.3 96.97C90.32 96.97 88.41 98.81 88.41 104.26C88.41 109.37 90.06 111.17 92.11 111.17C92.63 111.16 93.13 111.03 93.59 110.78C94.04 110.53 94.43 110.18 94.73 109.75L94.73 109.75ZM106.11 113.69L106.11 98.01C106.13 97.84 106.12 97.66 106.06 97.5C106 97.34 105.9 97.19 105.78 97.07L103.97 95.17L103.97 95.09L112.12 95.09L112.12 110.99C112.12 111.49 112.12 111.6 112.45 111.9L114.24 113.63L114.24 113.7L106.11 113.69ZM105.81 89.35C105.81 87.5 107.28 86 109.09 86C110.9 86 112.37 87.5 112.37 89.36C112.37 91.21 110.9 92.71 109.09 92.71C107.28 92.71 105.81 91.21 105.81 89.36L105.81 89.35ZM134.09 110.84C134.09 111.33 134.09 111.47 134.42 111.78L136.25 113.61L136.25 113.69L128.07 113.69L128.07 109.67C127.32 112.21 125.05 113.97 122.46 113.99C118.83 113.99 116.88 111.28 116.88 106.15C116.88 103.68 116.88 100.97 116.96 97.92C116.99 97.76 116.97 97.58 116.92 97.42C116.86 97.26 116.76 97.12 116.63 97.02L114.83 95.17L114.83 95.09L122.91 95.09L122.91 105.31C122.91 108.68 123.39 110.92 125.44 110.92C125.99 110.88 126.51 110.71 126.98 110.41C127.44 110.11 127.82 109.71 128.09 109.22L128.09 98.02C128.11 97.85 128.1 97.68 128.04 97.51C127.98 97.35 127.89 97.2 127.76 97.08L125.94 95.17L125.94 95.09L134.09 95.09L134.09 110.84ZM161.81 113.69C161.81 113.09 161.92 105.38 161.92 103.61C161.92 100.25 161.4 97.93 159.1 97.93C158.52 97.95 157.96 98.11 157.46 98.39C156.96 98.67 156.52 99.07 156.2 99.55C156.43 100.59 156.54 101.67 156.53 102.74C156.53 105.07 156.45 108.04 156.42 111C156.39 111.17 156.4 111.34 156.46 111.5C156.52 111.66 156.62 111.8 156.75 111.91L158.58 113.64L158.58 113.72L150.36 113.72C150.36 113.15 150.47 105.4 150.47 103.64C150.47 100.22 149.96 97.96 147.69 97.96C147.13 97.98 146.59 98.14 146.12 98.43C145.64 98.72 145.25 99.13 144.98 99.61L144.98 111.04C144.98 111.53 144.98 111.64 145.3 111.95L147.1 113.67L147.1 113.75L138.96 113.75L138.96 98.07C138.99 97.9 138.97 97.72 138.92 97.56C138.86 97.39 138.76 97.25 138.64 97.13L136.83 95.17L136.83 95.09L144.98 95.09L144.98 99.08C145.73 96.44 148.14 94.68 150.81 94.79C153.52 94.79 155.36 96.33 156.14 99.27C157 96.56 159.48 94.74 162.26 94.79C165.89 94.79 167.94 97.53 167.94 102.72C167.94 105.19 167.86 108.01 167.83 110.98C167.8 111.15 167.82 111.33 167.88 111.49C167.95 111.65 168.06 111.79 168.2 111.89L170 113.61L170 113.69L161.81 113.69ZM59.51 111.25L61.92 113.61L61.92 113.69L49.67 113.69L49.67 113.61L52.13 111.25C52.26 111.14 52.36 111 52.41 110.84C52.47 110.68 52.49 110.51 52.46 110.34L52.46 95.23C52.46 94.6 52.46 93.73 52.57 93L44.3 114L44.21 114L35.65 94.67C35.46 94.19 35.41 94.16 35.29 93.83L35.29 106.5C35.18 107.35 35.32 108.21 35.69 108.98L39.13 113.61L39.13 113.69L30 113.69L30 113.61L33.44 108.97C33.8 108.2 33.94 107.35 33.84 106.5L33.84 92.5C33.9 91.81 33.7 91.13 33.27 90.59L30.84 87.35L30.84 87.27L39.58 87.27L46.9 103.64L53.35 87.27L61.91 87.27L61.91 87.35L59.51 90.09C59.37 90.2 59.26 90.35 59.19 90.51C59.13 90.68 59.11 90.86 59.14 91.04L59.14 110.34C59.1 110.52 59.12 110.69 59.19 110.85C59.26 111.02 59.37 111.15 59.51 111.25L59.51 111.25ZM69.09 103.68L69.09 103.76C69.09 108.55 71.51 110.48 74.34 110.48C76.7 110.56 78.89 109.2 79.92 107.02L79.99 107.02C79.01 111.76 76.14 113.99 71.86 113.99C67.24 113.99 62.87 111.14 62.87 104.52C62.87 97.56 67.25 94.79 72.08 94.79C75.97 94.79 80.11 96.67 80.11 102.72L80.11 103.68L69.09 103.68ZM69.09 102.72L74.48 102.72L74.48 101.74C74.48 96.81 73.49 95.5 71.99 95.5C70.18 95.5 69.07 97.46 69.07 102.72L69.09 102.72Z" fill="#B8BCC2" fill-opacity="1.000000" fill-rule="nonzero"/>
	</g>
</svg>
