<svg width="200.000000" height="200.000000" viewBox="0 0 200 200" fill="none" xmlns="http://www.w3.org/2000/svg" xmlns:xlink="http://www.w3.org/1999/xlink">
	<desc>
			Created with Pixso.
	</desc>
	<defs>
		<clipPath id="clip135_849">
			<rect id="linkedin" width="200.000000" height="200.000000" fill="white" fill-opacity="0"/>
		</clipPath>
	</defs>
	<rect id="linkedin" width="200.000000" height="200.000000" fill="#FFFFFF" fill-opacity="0"/>
	<g clip-path="url(#clip135_849)">
		<path id="Vector" d="M133 84.65C133 83.18 134.22 82 135.73 82L167.26 82C168.77 82 170 83.18 170 84.65L170 116.35C170 117.81 168.77 119 167.26 119L135.73 119C134.22 119 133 117.81 133 116.35L133 84.65L133 84.65Z" fill="#006699" fill-opacity="1.000000" fill-rule="nonzero"/>
		<path id="Vector" d="M30 113L45.33 113L45.33 107.91L35.54 107.91L35.54 88.5L30 88.5L30 113ZM53.09 113L53.09 96.13L47.54 96.13L47.54 113L53.09 113ZM50.32 93.82C52.25 93.82 53.46 92.53 53.46 90.91C53.42 89.25 52.25 88 50.35 88C48.46 88 47.21 89.25 47.21 90.91C47.21 92.53 48.42 93.82 50.28 93.82L50.32 93.82ZM55.67 113L61.22 113L61.22 103.57C61.22 103.07 61.25 102.57 61.4 102.21C61.8 101.2 62.71 100.16 64.25 100.16C66.26 100.16 67.06 101.7 67.06 103.97L67.06 112.99L72.61 112.99L72.61 103.32C72.61 98.14 69.87 95.73 66.22 95.73C63.22 95.73 61.91 97.42 61.18 98.57L61.22 98.57L61.22 96.13L55.67 96.13C55.74 97.71 55.67 113 55.67 113ZM80.44 88.5L74.89 88.5L74.89 113L80.44 113L80.44 107.53L81.82 105.76L86.17 113L93 113L85.69 102.52L92.08 95.4L85.4 95.4C85.4 95.4 80.84 101.77 80.44 102.53L80.44 88.5Z" fill="#000000" fill-opacity="1.000000" fill-rule="nonzero"/>
		<path id="Vector" d="M108.08 105.83C108.16 105.41 108.27 104.61 108.27 103.7C108.27 99.5 106.04 95.23 100.17 95.23C93.89 95.23 91 99.98 91 104.3C91 109.63 94.52 112.96 100.69 112.96C103.14 112.96 105.41 112.61 107.26 111.88L106.52 108.31C105 108.8 103.44 109.04 101.51 109.04C98.87 109.04 96.57 108 96.38 105.79L108.08 105.83L108.08 105.83ZM96.34 102.17C96.49 100.78 97.46 98.73 99.87 98.73C102.44 98.73 103.03 100.92 103.03 102.17L96.34 102.17L96.34 102.17ZM122.2 89L122.2 97.17L122.13 97.17C121.31 96.03 119.6 95.26 117.34 95.26C112.99 95.26 109.17 98.59 109.2 104.29C109.2 109.56 112.66 113 116.96 113C119.3 113 121.53 112.02 122.65 110.15L122.76 110.15L122.98 112.61L128 112.61C127.92 111.47 127.85 109.49 127.85 107.55L127.85 89L122.2 89L122.2 89ZM122.2 105.08C122.2 105.5 122.16 105.92 122.09 106.26C121.76 107.76 120.42 108.8 118.78 108.8C116.45 108.8 114.92 106.99 114.92 104.15C114.92 101.47 116.22 99.32 118.82 99.32C120.57 99.32 121.79 100.47 122.13 101.89C122.2 102.2 122.2 102.55 122.2 102.86L122.2 105.08L122.2 105.08Z" fill="#000000" fill-opacity="1.000000" fill-rule="nonzero"/>
		<path id="Vector" d="M143.9 112.99L143.9 96.13L138.32 96.13L138.32 112.99L143.9 112.99L143.9 112.99ZM141.11 93.82C143.06 93.82 144.27 92.53 144.27 90.91C144.23 89.25 143.06 88 141.15 88C139.24 88 138 89.25 138 90.91C138 92.53 139.2 93.82 141.08 93.82L141.11 93.82L141.11 93.82ZM146.98 112.99L152.56 112.99L152.56 103.58C152.56 103.07 152.59 102.57 152.74 102.21C153.14 101.2 154.06 100.16 155.6 100.16C157.62 100.16 158.42 101.7 158.42 103.97L158.42 112.99L164 112.99L164 103.32C164 98.14 161.25 95.73 157.58 95.73C154.57 95.73 153.25 97.42 152.52 98.57L152.56 98.57L152.56 96.13L146.98 96.13C147.06 97.71 146.98 113 146.98 113L146.98 112.99Z" fill="#FFFFFF" fill-opacity="1.000000" fill-rule="nonzero"/>
	</g>
</svg>
