<svg width="200.000000" height="200.000000" viewBox="0 0 200 200" fill="none" xmlns="http://www.w3.org/2000/svg" xmlns:xlink="http://www.w3.org/1999/xlink">
	<desc>
			Created with Pixso.
	</desc>
	<defs>
		<clipPath id="clip135_861">
			<rect id="spotify" width="200.000000" height="200.000000" fill="white" fill-opacity="0"/>
		</clipPath>
	</defs>
	<rect id="spotify" width="200.000000" height="200.000000" fill="#FFFFFF" fill-opacity="0"/>
	<g clip-path="url(#clip135_861)">
		<path id="Vector" d="M50.99 79C39.39 79 30 88.4 30 100C30 111.59 39.39 121 50.99 121C62.59 121 71.98 111.59 71.98 100C71.98 88.4 62.59 79 50.99 79L50.99 79ZM60.62 109.28C60.24 109.9 59.43 110.1 58.82 109.72C53.89 106.7 47.68 106.02 40.37 107.69C39.67 107.85 38.97 107.41 38.81 106.71C38.65 106.01 39.09 105.3 39.79 105.14C47.79 103.31 54.65 104.1 60.18 107.48C60.8 107.86 61 108.67 60.62 109.28L60.62 109.28ZM63.19 103.57C62.71 104.34 61.71 104.58 60.94 104.1C55.29 100.64 46.69 99.63 40.02 101.66C39.15 101.92 38.24 101.43 37.97 100.57C37.71 99.7 38.2 98.79 39.06 98.52C46.69 96.21 56.17 97.33 62.65 101.31C63.42 101.79 63.66 102.8 63.19 103.57L63.19 103.57ZM63.41 97.61C56.64 93.59 45.48 93.22 39.02 95.18C37.98 95.5 36.88 94.91 36.57 93.87C36.25 92.84 36.84 91.74 37.88 91.42C45.29 89.17 57.62 89.61 65.41 94.23C66.35 94.79 66.65 95.99 66.1 96.92C65.55 97.86 64.34 98.16 63.41 97.61L63.41 97.61ZM87.11 98.38C83.49 97.52 82.84 96.91 82.84 95.63C82.84 94.43 83.98 93.62 85.66 93.62C87.3 93.62 88.92 94.24 90.62 95.5C90.67 95.54 90.74 95.56 90.8 95.55C90.86 95.54 90.92 95.5 90.96 95.45L92.73 92.95C92.8 92.85 92.78 92.71 92.68 92.63C90.66 91.01 88.38 90.22 85.72 90.22C81.8 90.22 79.07 92.57 79.07 95.93C79.07 99.53 81.43 100.81 85.5 101.8C88.97 102.6 89.56 103.27 89.56 104.46C89.56 105.79 88.37 106.61 86.47 106.61C84.35 106.61 82.63 105.9 80.7 104.23C80.65 104.19 80.58 104.17 80.52 104.17C80.46 104.18 80.4 104.21 80.36 104.25L78.38 106.62C78.29 106.72 78.3 106.86 78.4 106.95C80.65 108.95 83.41 110.01 86.39 110.01C90.61 110.01 93.33 107.71 93.33 104.14C93.34 101.13 91.54 99.46 87.12 98.38L87.11 98.38ZM102.87 94.81C101.05 94.81 99.55 95.53 98.31 97L98.31 95.34C98.31 95.21 98.2 95.1 98.07 95.1L94.83 95.1C94.7 95.1 94.59 95.21 94.59 95.34L94.59 113.8C94.59 113.93 94.7 114.04 94.83 114.04L98.07 114.04C98.2 114.04 98.31 113.93 98.31 113.8L98.31 107.97C99.55 109.36 101.05 110.04 102.87 110.04C106.27 110.04 109.71 107.42 109.71 102.42C109.72 97.42 106.28 94.81 102.88 94.81L102.87 94.81ZM105.94 102.42C105.94 104.97 104.37 106.75 102.12 106.75C99.9 106.75 98.23 104.89 98.23 102.42C98.23 99.96 99.9 98.1 102.12 98.1C104.33 98.1 105.94 99.92 105.94 102.42L105.94 102.42ZM118.52 94.81C114.15 94.81 110.72 98.17 110.72 102.48C110.72 106.73 114.13 110.07 118.47 110.07C122.86 110.07 126.3 106.71 126.3 102.42C126.3 98.15 122.88 94.81 118.52 94.81L118.52 94.81ZM118.52 106.77C116.2 106.77 114.44 104.9 114.44 102.42C114.44 99.93 116.14 98.12 118.47 98.12C120.81 98.12 122.58 100 122.58 102.48C122.58 104.97 120.87 106.77 118.52 106.77L118.52 106.77ZM135.64 95.1L132.07 95.1L132.07 91.45C132.07 91.32 131.96 91.21 131.83 91.21L128.59 91.21C128.45 91.21 128.35 91.32 128.35 91.45L128.35 95.1L126.79 95.1C126.66 95.1 126.55 95.21 126.55 95.34L126.55 98.13C126.55 98.26 126.66 98.37 126.79 98.37L128.35 98.37L128.35 105.59C128.35 108.51 129.8 109.99 132.66 109.99C133.83 109.99 134.79 109.75 135.7 109.23C135.78 109.19 135.82 109.11 135.82 109.02L135.82 106.37C135.82 106.28 135.78 106.21 135.71 106.16C135.64 106.12 135.55 106.12 135.48 106.15C134.85 106.47 134.25 106.61 133.57 106.61C132.53 106.61 132.07 106.14 132.07 105.08L132.07 98.37L135.64 98.37C135.77 98.37 135.88 98.26 135.88 98.13L135.88 95.34C135.88 95.21 135.78 95.1 135.64 95.1L135.64 95.1ZM148.08 95.12L148.08 94.67C148.08 93.35 148.59 92.76 149.72 92.76C150.4 92.76 150.94 92.89 151.55 93.1C151.63 93.12 151.71 93.11 151.77 93.06C151.83 93.02 151.87 92.95 151.87 92.87L151.87 90.14C151.87 90.03 151.8 89.94 151.7 89.91C151.05 89.72 150.23 89.52 149 89.52C146 89.52 144.42 91.21 144.42 94.4L144.42 95.09L142.86 95.09C142.73 95.09 142.62 95.2 142.62 95.33L142.62 98.13C142.62 98.26 142.73 98.37 142.86 98.37L144.42 98.37L144.42 109.51C144.42 109.64 144.52 109.74 144.65 109.74L147.9 109.74C148.03 109.74 148.14 109.64 148.14 109.51L148.14 98.37L151.17 98.37L155.81 109.5C155.28 110.67 154.77 110.91 154.06 110.91C153.49 110.91 152.88 110.73 152.27 110.4C152.21 110.37 152.14 110.36 152.08 110.38C152.02 110.4 151.97 110.45 151.94 110.51L150.84 112.92C150.79 113.04 150.83 113.17 150.94 113.23C152.09 113.85 153.13 114.12 154.41 114.12C156.8 114.12 158.13 113 159.3 110L164.93 95.44C164.96 95.37 164.95 95.29 164.9 95.22C164.86 95.16 164.79 95.12 164.71 95.12L161.33 95.12C161.23 95.12 161.14 95.18 161.1 95.28L157.64 105.17L153.85 95.27C153.82 95.18 153.73 95.12 153.63 95.12L148.08 95.12L148.08 95.12ZM140.87 95.1L137.62 95.1C137.49 95.1 137.39 95.21 137.39 95.34L137.39 109.51C137.39 109.64 137.49 109.74 137.62 109.74L140.87 109.74C141 109.74 141.11 109.64 141.11 109.51L141.11 95.34C141.11 95.31 141.1 95.28 141.09 95.25C141.08 95.22 141.06 95.2 141.04 95.17C141.02 95.15 140.99 95.13 140.96 95.12C140.93 95.11 140.9 95.1 140.87 95.1L140.87 95.1ZM139.26 88.65C137.98 88.65 136.94 89.69 136.94 90.98C136.94 92.27 137.98 93.31 139.26 93.31C140.55 93.31 141.59 92.27 141.59 90.98C141.59 89.69 140.55 88.65 139.27 88.65L139.26 88.65ZM167.7 99.66C166.41 99.66 165.42 98.62 165.42 97.37C165.42 96.12 166.43 95.08 167.71 95.08C169 95.08 170 96.11 170 97.36C170 98.61 168.98 99.66 167.7 99.66L167.7 99.66ZM167.71 95.3C166.54 95.3 165.66 96.23 165.66 97.37C165.66 98.51 166.54 99.43 167.7 99.43C168.87 99.43 169.76 98.5 169.76 97.36C169.76 96.22 168.88 95.3 167.71 95.3L167.71 95.3ZM168.22 97.59L168.86 98.5L168.32 98.5L167.74 97.67L167.24 97.67L167.24 98.5L166.78 98.5L166.78 96.1L167.85 96.1C168.41 96.1 168.77 96.38 168.77 96.87C168.78 97.26 168.55 97.5 168.22 97.59L168.22 97.59L168.22 97.59ZM167.83 96.51L167.24 96.51L167.24 97.27L167.83 97.27C168.13 97.27 168.31 97.12 168.31 96.89C168.31 96.64 168.13 96.51 167.83 96.51L167.83 96.51L167.83 96.51Z" fill="#B8BCC2" fill-opacity="1.000000" fill-rule="nonzero"/>
	</g>
</svg>
